<?xml version="1.0" encoding="UTF-8" standalone="no"?>
<svg
   xmlns:dc="http://purl.org/dc/elements/1.1/"
   xmlns:cc="http://creativecommons.org/ns#"
   xmlns:rdf="http://www.w3.org/1999/02/22-rdf-syntax-ns#"
   xmlns:svg="http://www.w3.org/2000/svg"
   xmlns="http://www.w3.org/2000/svg"
   xmlns:sodipodi="http://sodipodi.sourceforge.net/DTD/sodipodi-0.dtd"
   xmlns:inkscape="http://www.inkscape.org/namespaces/inkscape"
   width="100px"
   height="100px"
   viewBox="0 0 100 100"
   version="1.1"
   id="svg34"
   sodipodi:docname="icon.svg"
   inkscape:version="0.92.4 (5da689c313, 2019-01-14)">
  <metadata
     id="metadata38">
    <rdf:RDF>
      <cc:Work
         rdf:about="">
        <dc:format>image/svg+xml</dc:format>
        <dc:type
           rdf:resource="http://purl.org/dc/dcmitype/StillImage" />
        <dc:title>routes</dc:title>
      </cc:Work>
    </rdf:RDF>
  </metadata>
  <sodipodi:namedview
     pagecolor="#ffffff"
     bordercolor="#666666"
     borderopacity="1"
     objecttolerance="10"
     gridtolerance="10"
     guidetolerance="10"
     inkscape:pageopacity="0"
     inkscape:pageshadow="2"
     inkscape:window-width="1920"
     inkscape:window-height="1057"
     id="namedview36"
     showgrid="false"
     inkscape:zoom="8.88"
     inkscape:cx="50"
     inkscape:cy="50"
     inkscape:window-x="-8"
     inkscape:window-y="-8"
     inkscape:window-maximized="1"
     inkscape:current-layer="svg34" />
  <!-- Generator: Sketch 42 (36781) - http://www.bohemiancoding.com/sketch -->
  <title
     id="title25">routes</title>
  <desc
     id="desc27">Created with Sketch.</desc>
  <defs
     id="defs29" />
  <g
     id="Page-1"
     stroke="none"
     stroke-width="1"
     fill="none"
     fill-rule="evenodd">
    <g
       id="routes"
       fill-rule="nonzero"
       fill="#000000">
      <path
         d="M97.3772321,16.5736607 C98.1026786,17.2991071 98.1026786,18.4151786 97.3772321,19.140625 L89.5089286,27.0089286 C88.5044643,28.0133929 87.109375,28.5714286 85.7142857,28.5714286 L10.7142857,28.5714286 C8.76116071,28.5714286 7.14285714,26.953125 7.14285714,25 L7.14285714,10.7142857 C7.14285714,8.76116071 8.76116071,7.14285714 10.7142857,7.14285714 L42.8571429,7.14285714 L42.8571429,3.57142857 C42.8571429,1.61830357 44.4754464,0 46.4285714,0 L53.5714286,0 C55.5245536,0 57.1428571,1.61830357 57.1428571,3.57142857 L57.1428571,7.14285714 L85.7142857,7.14285714 C87.109375,7.14285714 88.5044643,7.70089286 89.5089286,8.70535714 L97.3772321,16.5736607 Z M42.8571429,67.8571429 L57.1428571,67.8571429 L57.1428571,96.4285714 C57.1428571,98.3816964 55.5245536,100 53.5714286,100 L46.4285714,100 C44.4754464,100 42.8571429,98.3816964 42.8571429,96.4285714 L42.8571429,67.8571429 Z M89.2857143,42.8571429 C91.2388393,42.8571429 92.8571429,44.4754464 92.8571429,46.4285714 L92.8571429,60.7142857 C92.8571429,62.6674107 91.2388393,64.2857143 89.2857143,64.2857143 L14.2857143,64.2857143 C12.890625,64.2857143 11.4955357,63.7276786 10.4910714,62.7232143 L2.62276786,54.8549107 C1.89732143,54.1294643 1.89732143,53.0133929 2.62276786,52.2879464 L10.4910714,44.4196429 C11.4955357,43.4151786 12.890625,42.8571429 14.2857143,42.8571429 L42.8571429,42.8571429 L42.8571429,32.1428571 L57.1428571,32.1428571 L57.1428571,42.8571429 L89.2857143,42.8571429 Z"
         id="Shape" />
    </g>
  </g>
  <path
     style="fill:#bc4f3e;fill-opacity:1;stroke-width:0.11261261"
     d="M 9.9019537,28.404575 C 8.6868684,28.076954 7.724994,27.173411 7.3767275,26.032489 7.1221952,25.19864 7.1236087,10.525088 7.3783039,9.6674361 7.6402936,8.7852214 8.2960009,8.038385 9.1988266,7.5939009 L 9.9613959,7.2184685 26.42497,7.1884849 42.888544,7.1585015 42.925127,4.9362327 C 42.960883,2.7643305 42.968874,2.6993789 43.27772,2.0704461 43.665324,1.2811279 44.412153,0.60246012 45.229777,0.29654809 45.804546,0.08149949 46.094782,0.06756757 50,0.06756757 c 3.905218,0 4.195454,0.01393192 4.770223,0.22898052 0.817624,0.30591203 1.564453,0.98457981 1.952057,1.77389801 0.308875,0.6289914 0.316835,0.6937235 0.352614,2.867617 l 0.03661,2.2240991 14.434115,0.00195 c 15.693697,0.00213 15.228423,-0.015586 16.593312,0.6316622 0.556849,0.2640654 1.332252,0.9850815 5.125031,4.7655626 3.915762,3.903066 4.478354,4.506695 4.545191,4.876721 0.186089,1.030252 0.28684,0.902757 -4.489316,5.680945 -4.199761,4.201548 -4.452836,4.433115 -5.25677,4.809987 -0.464527,0.217764 -1.173986,0.448119 -1.576577,0.511899 -1.146286,0.181599 -75.90781,0.146145 -76.5845323,-0.03632 z"
     id="path40"
     inkscape:connector-curvature="0" />
  <path
     style="fill:#bc4f3e;fill-opacity:1;stroke-width:0.11261261"
     d="M 13.344595,64.140152 C 12.633244,63.993681 11.932923,63.714747 11.378682,63.35714 11.097321,63.1756 8.9323717,61.086687 6.567683,58.71511 1.9153886,54.049265 2.0052415,54.163795 2.1908598,53.136261 c 0.066779,-0.369672 0.6261698,-0.971297 4.4888841,-4.8278 4.1384721,-4.131819 4.4650671,-4.430968 5.2571931,-4.815388 0.577377,-0.280201 1.111812,-0.444032 1.689189,-0.51782 0.497976,-0.06364 6.67933,-0.109366 15.061937,-0.111416 l 14.217342,-0.0035 V 37.511261 32.162162 H 50 57.094595 v 5.346559 5.346559 l 16.469594,0.03069 16.469595,0.03069 0.636031,0.298194 c 0.774905,0.363301 1.429566,0.997414 1.793821,1.737514 l 0.27285,0.554382 0.03107,7.899014 c 0.03064,7.78982 0.0278,7.907762 -0.205648,8.531706 -0.287188,0.767579 -1.058565,1.594375 -1.852449,1.98554 l -0.563063,0.277433 -38.175675,0.01623 c -20.996622,0.0089 -38.378379,-0.02551 -38.626126,-0.07653 z"
     id="path42"
     inkscape:connector-curvature="0" />
  <path
     style="fill:#bc4f3e;fill-opacity:1;stroke-width:0.11261261"
     d="M 45.427511,99.797806 C 44.355971,99.456497 43.38359,98.467506 43.05894,97.388777 42.932736,96.969434 42.905405,94.295829 42.905405,82.36949 V 67.86036 h 7.096235 7.096235 l -0.02979,14.724099 -0.02979,14.7241 -0.244374,0.528869 c -0.312291,0.675855 -1.06979,1.433354 -1.78559,1.78559 l -0.560126,0.275631 -4.279279,0.02318 c -3.265694,0.01769 -4.388739,-0.01169 -4.741408,-0.124021 z"
     id="path44"
     inkscape:connector-curvature="0" />
</svg>
